<svg width="1200" height="560" viewBox="0 0 1200 560" fill="none" xmlns="http://www.w3.org/2000/svg">
  <rect width="1200" height="560" rx="20" fill="#0F172A"/>
  <text x="56" y="78" fill="#E2E8F0" font-family="Inter, Arial, sans-serif" font-size="38" font-weight="700">KIFU Service Snapshot</text>
  <rect x="56" y="110" width="360" height="130" rx="16" fill="#111827"/>
  <rect x="446" y="110" width="360" height="130" rx="16" fill="#111827"/>
  <rect x="836" y="110" width="308" height="130" rx="16" fill="#111827"/>

  <text x="84" y="150" fill="#93C5FD" font-family="Inter, Arial, sans-serif" font-size="24" font-weight="600">Home Snapshot</text>
  <text x="84" y="184" fill="#CBD5E1" font-family="Inter, Arial, sans-serif" font-size="18">Live trading, AI summaries, and portfolio in one view</text>

  <text x="474" y="150" fill="#6EE7B7" font-family="Inter, Arial, sans-serif" font-size="24" font-weight="600">Review Flow</text>
  <text x="474" y="184" fill="#CBD5E1" font-family="Inter, Arial, sans-serif" font-size="18">Daily debrief, sentiment log, and streak tracking</text>

  <text x="864" y="150" fill="#FDE68A" font-family="Inter, Arial, sans-serif" font-size="24" font-weight="600">AI Review</text>
  <text x="864" y="184" fill="#CBD5E1" font-family="Inter, Arial, sans-serif" font-size="18">Compare bubble notes, AI opinions, and outcomes</text>

  <rect x="56" y="270" width="1088" height="230" rx="16" fill="#111827"/>
  <text x="84" y="318" fill="#94A3B8" font-family="Inter, Arial, sans-serif" font-size="30" font-weight="700">Data Layers</text>

  <g stroke="#334155" stroke-width="2">
    <line x1="330" y1="340" x2="330" y2="470"/>
    <line x1="620" y1="340" x2="620" y2="470"/>
    <line x1="910" y1="340" x2="910" y2="470"/>
  </g>

  <text x="100" y="382" fill="#E2E8F0" font-family="Inter, Arial, sans-serif" font-size="22" font-weight="600">Trades</text>
  <text x="100" y="414" fill="#CBD5E1" font-family="Inter, Arial, sans-serif" font-size="16">Exchange sync and portfolio event ingestion</text>

  <text x="390" y="382" fill="#E2E8F0" font-family="Inter, Arial, sans-serif" font-size="22" font-weight="600">Bubbles</text>
  <text x="390" y="414" fill="#CBD5E1" font-family="Inter, Arial, sans-serif" font-size="16">Decision events, tags, and notes</text>

  <text x="680" y="382" fill="#E2E8F0" font-family="Inter, Arial, sans-serif" font-size="22" font-weight="600">Review</text>
  <text x="680" y="414" fill="#CBD5E1" font-family="Inter, Arial, sans-serif" font-size="16">Sentiment and pattern logging with performance checks</text>

  <text x="970" y="382" fill="#E2E8F0" font-family="Inter, Arial, sans-serif" font-size="22" font-weight="600">Replay</text>
  <text x="970" y="414" fill="#CBD5E1" font-family="Inter, Arial, sans-serif" font-size="16">Chart, AI comparison, and outcome validation</text>

  <path d="M190 430 C220 390 270 390 300 430" stroke="#14B8A6" stroke-width="4" fill="none"/>
  <path d="M480 430 C510 390 560 390 590 430" stroke="#14B8A6" stroke-width="4" fill="none"/>
  <path d="M770 430 C800 390 850 390 880 430" stroke="#14B8A6" stroke-width="4" fill="none"/>
</svg>
